<svg width="32" height="32" viewBox="0 0 32 32" fill="none" xmlns="http://www.w3.org/2000/svg">
<path d="M16 28H6V24H8V22H6V17H8V15H6V10H8V8H6V4H24V20H26V4C26 2.9 25.1 2 24 2H6C4.9 2 4 2.9 4 4V8H2V10H4V15H2V17H4V22H2V24H4V28C4 29.1 4.9 30 6 30H16V28Z" fill="black"/>
<path fill-rule="evenodd" clip-rule="evenodd" d="M16 30V28H24H26C26 29.1046 25.1046 30 24 30H16Z" fill="black"/>
<path fill-rule="evenodd" clip-rule="evenodd" d="M24 20H26V28H24V20Z" fill="black"/>
<path d="M10 22.6667H14V24H10V22.6667ZM10 19.3333H14V20.6667H10V19.3333ZM10 16H14V17.3333H10V16Z" fill="black"/>
<path fill-rule="evenodd" clip-rule="evenodd" d="M21.862 20.0946C22.0311 20.2316 22.047 20.4685 21.8975 20.6244L18.7604 23.8735C18.7242 23.911 18.6801 23.9415 18.6308 23.9632C18.5815 23.9848 18.5279 23.9972 18.4733 23.9996C18.4187 24.002 18.3641 23.9943 18.3128 23.977C18.2614 23.9597 18.2144 23.9332 18.1745 23.899L16.1285 22.1495C16.0498 22.0815 16.0037 21.9878 16.0002 21.8888C15.9967 21.7897 16.0362 21.6935 16.1099 21.621C16.1837 21.5485 16.2858 21.5058 16.3938 21.502C16.5019 21.4983 16.6072 21.534 16.6867 21.6012L18.4271 23.0857L21.2859 20.1266C21.3215 20.0897 21.3648 20.0595 21.4132 20.0379C21.4615 20.0163 21.5141 20.0037 21.5678 20.0007C21.6215 19.9977 21.6753 20.0045 21.7262 20.0206C21.7771 20.0367 21.824 20.0619 21.8642 20.0946H21.862Z" fill="black"/>
<path d="M19 8.35714V8H16.375V8.35714H17.5V8.71429H17.125V9.42857H15.8875L15.3246 8.5H13.6956L13.1331 9.42857H11.875V8.71429H11.5V8.35714H12.625V8H10V8.35714H11.125V8.71429H10.75V10.5H11.875V10.1429H13.0626L13.1436 10.2764C12.6497 10.5149 12.2348 10.8788 11.9447 11.328C11.6546 11.7772 11.5007 12.2941 11.5 12.8214C11.5 12.8688 11.5198 12.9142 11.5549 12.9477C11.5901 12.9812 11.6378 13 11.6875 13C11.7372 13 11.7849 12.9812 11.8201 12.9477C11.8552 12.9142 11.875 12.8688 11.875 12.8214C11.8756 12.3568 12.0122 11.9015 12.2694 11.5066C12.5266 11.1117 12.8943 10.793 13.3311 10.5861L13.6956 11.1871H15.3246L15.6846 10.5932C16.1174 10.8017 16.4811 11.1202 16.7353 11.5135C16.9896 11.9068 17.1245 12.3595 17.125 12.8214C17.125 12.8688 17.1448 12.9142 17.1799 12.9477C17.2151 12.9812 17.2628 13 17.3125 13C17.3622 13 17.4099 12.9812 17.4451 12.9477C17.4802 12.9142 17.5 12.8688 17.5 12.8214C17.4995 12.2969 17.3473 11.7826 17.0603 11.335C16.7732 10.8873 16.3622 10.5235 15.8725 10.2836L15.9576 10.1429H17.125V10.5H18.25V8.71429H17.875V8.35714H19Z" fill="black"/>
</svg>
