<svg width="16" height="16" viewBox="0 0 16 16" fill="none" xmlns="http://www.w3.org/2000/svg">
<path d="M8 14H3V12H4V11H3V8.5H4V7.5H3V5H4V4H3V2H12V10H13V2C13 1.45 12.55 1 12 1H3C2.45 1 2 1.45 2 2V4H1V5H2V7.5H1V8.5H2V11H1V12H2V14C2 14.55 2.45 15 3 15H8V14Z" fill="black"/>
<path fill-rule="evenodd" clip-rule="evenodd" d="M8 15V14H12H13C13 14.5523 12.5523 15 12 15H8Z" fill="black"/>
<path fill-rule="evenodd" clip-rule="evenodd" d="M12 10H13V14H12V10Z" fill="black"/>
<mask id="mask0_1379_869" style="mask-type:luminance" maskUnits="userSpaceOnUse" x="4" y="3" width="5" height="5">
<path d="M5.9375 4.5625C5.9375 4.41332 5.99676 4.27024 6.10225 4.16475C6.20774 4.05926 6.35082 4 6.5 4H7.34375C7.49293 4 7.63601 4.05926 7.7415 4.16475C7.84699 4.27024 7.90625 4.41332 7.90625 4.5625V4.75H5.9375V4.5625Z" stroke="white" stroke-width="0.5" stroke-linecap="round" stroke-linejoin="round"/>
<path d="M5 5.59375L6.82953 6.05116C6.85934 6.05866 6.89066 6.05866 6.92047 6.05116L8.75 5.59375V6.8125C8.75 6.86223 8.73025 6.90992 8.69508 6.94508C8.65992 6.98025 8.61223 7 8.5625 7H5.1875C5.13777 7 5.09008 6.98025 5.05492 6.94508C5.01975 6.90992 5 6.86223 5 6.8125V5.59375Z" fill="#555555" stroke="white" stroke-width="0.5" stroke-linecap="round" stroke-linejoin="round"/>
<path d="M8.75 5.78125V4.9375C8.75 4.88777 8.73025 4.84008 8.69508 4.80492C8.65992 4.76975 8.61223 4.75 8.5625 4.75H5.1875C5.13777 4.75 5.09008 4.76975 5.05492 4.80492C5.01975 4.84008 5 4.88777 5 4.9375V5.78125" stroke="white" stroke-width="0.5" stroke-linecap="round" stroke-linejoin="round"/>
<path d="M7.10938 5.40625C7.10938 5.46841 7.08468 5.52802 7.04073 5.57198C6.99677 5.61593 6.93716 5.64062 6.875 5.64062C6.81284 5.64062 6.75323 5.61593 6.70927 5.57198C6.66532 5.52802 6.64062 5.46841 6.64062 5.40625C6.64062 5.34409 6.66532 5.28448 6.70927 5.24052C6.75323 5.19657 6.81284 5.17188 6.875 5.17188C6.93716 5.17188 6.99677 5.19657 7.04073 5.24052C7.08468 5.28448 7.10938 5.34409 7.10938 5.40625Z" fill="white"/>
</mask>
<g mask="url(#mask0_1379_869)">
<path d="M4.625 3.25H9.125V7.75H4.625V3.25Z" fill="black"/>
</g>
<path d="M5 11.3333H7V12H5V11.3333ZM5 9.66667H7V10.3333H5V9.66667ZM5 8H7V8.66667H5V8Z" fill="black"/>
<path fill-rule="evenodd" clip-rule="evenodd" d="M10.931 10.0473C11.0156 10.1158 11.0235 10.2342 10.9487 10.3122L9.38021 11.9367C9.36209 11.9555 9.34005 11.9707 9.3154 11.9816C9.29074 11.9924 9.26397 11.9986 9.23666 11.9998C9.20934 12.001 9.18205 11.9971 9.15638 11.9885C9.13072 11.9799 9.1072 11.9666 9.08723 11.9495L8.06427 11.0747C8.02492 11.0408 8.00185 10.9939 8.00011 10.9444C7.99836 10.8949 8.01809 10.8467 8.05496 10.8105C8.09184 10.7743 8.14288 10.7529 8.19692 10.751C8.25095 10.7492 8.3036 10.767 8.34334 10.8006L9.21353 11.5429L10.6429 10.0633C10.6608 10.0448 10.6824 10.0298 10.7066 10.019C10.7308 10.0082 10.757 10.0018 10.7839 10.0003C10.8108 9.99885 10.8377 10.0022 10.8631 10.0103C10.8885 10.0184 10.912 10.0309 10.9321 10.0473H10.931Z" fill="black"/>
</svg>
