<svg width="24" height="24" viewBox="0 0 24 24" fill="none" xmlns="http://www.w3.org/2000/svg">
<path fill-rule="evenodd" clip-rule="evenodd" d="M4.098 19.882C4.83 20.6273 5.72533 21 6.784 21C7.84267 20.9993 8.746 20.627 9.494 19.883C10.242 19.139 10.616 18.2403 10.616 17.187C10.616 16.7483 10.5467 16.336 10.408 15.95C10.2693 15.564 10.07 15.2107 9.81 14.89C10.5027 14.3527 11.2203 14.0933 11.963 14.112C12.7057 14.1307 13.54 14.9107 14.236 15.452L15.086 14.64C14.5453 13.9427 14.1483 12.7163 14.125 11.961C14.1017 11.2057 14.3523 10.4883 14.877 9.809C15.1977 10.069 15.5533 10.2683 15.944 10.407C16.3353 10.5457 16.7497 10.615 17.187 10.615C18.241 10.6163 19.1397 10.245 19.883 9.501C20.6263 8.757 20.9987 7.85733 21 6.802C21.0013 5.74667 20.6307 4.85233 19.888 4.119C19.1453 3.38567 18.2437 3.019 17.183 3.019C16.1223 3.019 15.2243 3.38533 14.489 4.118C13.7537 4.85067 13.386 5.74533 13.386 6.802C13.3853 7.208 13.446 7.59433 13.568 7.961C13.69 8.32767 13.858 8.661 14.072 8.961C13.3967 9.47633 12.6917 9.74467 11.957 9.766C11.2223 9.78733 10.5237 9.544 9.861 9.036C10.0917 8.71933 10.2753 8.37333 10.412 7.998C10.548 7.62267 10.616 7.224 10.616 6.802C10.6153 5.74133 10.2453 4.84233 9.506 4.105C8.76667 3.36767 7.86767 2.99933 6.809 3C5.75033 3.00067 4.85067 3.37 4.11 4.108C3.36933 4.846 2.99933 5.744 3 6.802C3.00067 7.86 3.371 8.759 4.111 9.499C4.851 10.239 5.75 10.609 6.808 10.609C7.23 10.609 7.62867 10.545 8.004 10.417C8.37933 10.289 8.72533 10.1097 9.042 9.879C9.55 10.5417 9.79233 11.2373 9.769 11.966C9.74633 12.694 9.47067 13.3957 8.942 14.071C8.642 13.857 8.30833 13.6923 7.941 13.577C7.57433 13.4617 7.18833 13.404 6.783 13.404C5.72633 13.404 4.83167 13.77 4.099 14.502C3.36633 15.234 3 16.1273 3 17.182C3 18.2367 3.366 19.1367 4.098 19.882ZM19.178 8.795C18.6307 9.34167 17.967 9.615 17.187 9.615C16.8717 9.61433 16.5707 9.56633 16.284 9.469C15.9973 9.37167 15.7407 9.23 15.514 9.044L17.706 6.808L17.036 6.139L14.836 8.319C14.688 8.109 14.5757 7.87533 14.499 7.618C14.4223 7.36067 14.384 7.08867 14.384 6.802C14.3847 6.02533 14.6577 5.36733 15.203 4.828C15.7483 4.28867 16.4107 4.019 17.19 4.019C17.9693 4.019 18.6327 4.28867 19.18 4.828C19.7267 5.36733 20 6.02633 20 6.805C20 7.58433 19.726 8.24767 19.178 8.795ZM7.648 9.464C7.38267 9.56133 7.10233 9.61 6.807 9.61C6.02967 9.61 5.36833 9.33667 4.821 8.79C4.27367 8.242 4 7.57967 4 6.803C4 6.02633 4.27367 5.36367 4.821 4.815C5.369 4.26767 6.03133 3.994 6.808 3.994C7.58467 3.994 8.24667 4.268 8.794 4.816C9.342 5.36333 9.616 6.02533 9.616 6.802C9.616 7.09267 9.57033 7.376 9.479 7.652C9.38767 7.928 9.25933 8.17733 9.094 8.4L6.808 6.12L6.1 6.809L8.381 9.088C8.15767 9.24067 7.91333 9.366 7.648 9.464ZM8.79 19.178C8.24 19.726 7.57333 20 6.79 20C6.00667 20 5.34767 19.7267 4.809 19.18C4.26967 18.632 4 17.9687 4 17.19C4 16.41 4.26967 15.751 4.809 15.213C5.34767 14.6737 6.00567 14.404 6.783 14.404C7.07033 14.4033 7.33833 14.4413 7.587 14.518C7.83567 14.5947 8.065 14.7073 8.275 14.856L5.919 17.212L6.633 17.9L9.043 15.527C9.229 15.7537 9.37067 16.009 9.468 16.293C9.56533 16.577 9.614 16.8747 9.614 17.186C9.614 17.966 9.33933 18.63 8.79 19.178ZM12.52 12.54C12.3793 12.68 12.2057 12.75 11.999 12.75C11.7917 12.75 11.6193 12.6797 11.48 12.539C11.3393 12.399 11.2693 12.2257 11.27 12.019C11.2707 11.8123 11.3407 11.639 11.48 11.499C11.6193 11.359 11.7927 11.289 12 11.289C12.2073 11.289 12.3807 11.359 12.52 11.499C12.66 11.6397 12.73 11.8133 12.73 12.02C12.73 12.2267 12.66 12.4 12.52 12.54Z" fill="black"/>
<path fill-rule="evenodd" clip-rule="evenodd" d="M15.086 14.64C15.4027 14.4087 15.7457 14.228 16.115 14.098C16.4843 13.968 16.8797 13.903 17.301 13.903C18.3543 13.903 19.2533 14.2693 19.998 15.002C20.7427 15.736 21.115 16.6313 21.115 17.688C21.115 18.7447 20.7423 19.6443 19.997 20.387C19.2517 21.1297 18.3517 21.5007 17.297 21.5C16.2423 21.4993 15.3457 21.127 14.607 20.383C13.8683 19.639 13.4993 18.7403 13.5 17.687C13.5 17.265 13.565 16.866 13.695 16.49C13.825 16.1147 14.0053 15.7687 14.236 15.452L15.086 14.64ZM17.305 20.5C18.0837 20.5 18.747 20.2267 19.295 19.68C19.843 19.1333 20.1163 18.47 20.115 17.69C20.1137 16.91 19.8397 16.2507 19.293 15.712C18.7463 15.1733 18.0823 14.904 17.301 14.904C17.0063 14.904 16.7263 14.9487 16.461 15.038C16.1957 15.1267 15.9513 15.2473 15.728 15.4L15.021 16.114C14.8683 16.3367 14.7433 16.5807 14.646 16.846C14.5487 17.1113 14.5 17.3913 14.5 17.686C14.5 18.466 14.7727 19.13 15.318 19.678C15.8633 20.226 16.5257 20.5 17.305 20.5Z" fill="#CA1919"/>
<path d="M18.0779 18.8793C18.1193 18.9534 18.1924 19 18.2734 19C18.4511 19 18.5617 18.7925 18.4629 18.6337L18.1963 18.1637C18.1549 18.096 18.1173 18.0388 18.0838 17.9901C18.0524 17.9432 18.0181 17.8986 17.9811 17.8567C17.9475 17.8186 17.912 17.7784 17.8725 17.7424C17.833 17.7064 17.7876 17.6725 17.7362 17.6408V17.6323C17.835 17.6069 17.9218 17.5688 17.9989 17.5201C18.0759 17.4693 18.143 17.4121 18.1983 17.3423C18.2536 17.2724 18.2951 17.1941 18.3247 17.1052C18.3543 17.0162 18.3701 16.9188 18.3701 16.813C18.3701 16.6754 18.3464 16.5589 18.299 16.4573C18.2536 16.3557 18.1865 16.271 18.1035 16.2032C18.0206 16.1355 17.9218 16.0847 17.8093 16.0508C17.6967 16.0169 17.5743 16 17.44 16H16.6718C16.5691 16.0064 16.5059 16.0487 16.5 16.1842V18.7438C16.5 18.8857 16.6066 18.9979 16.737 18.9979C16.8693 18.9979 16.9739 18.8836 16.9739 18.7438V17.7826H17.1655C17.2267 17.7826 17.28 17.789 17.3274 17.8059C17.3748 17.8229 17.4183 17.8462 17.4597 17.88C17.5012 17.9139 17.5407 17.9562 17.5802 18.0092C17.6197 18.06 17.6592 18.1235 17.7007 18.1976L18.0779 18.8793ZM16.9759 17.3804V16.4065H17.3709C17.5348 16.4065 17.6572 16.4467 17.7441 16.5272C17.831 16.6076 17.8744 16.7198 17.8744 16.8638C17.8744 16.9442 17.8626 17.0162 17.8369 17.0797C17.8132 17.1433 17.7777 17.1983 17.7323 17.2428C17.6868 17.2872 17.6335 17.3211 17.5723 17.3444C17.5111 17.3677 17.4439 17.3804 17.3709 17.3804H16.9759Z" fill="#B20A0A"/>
</svg>
